<?xml version="1.0" encoding="UTF-8"?>
<!-- Generator: Adobe Illustrator 16.0.3, SVG Export Plug-In . SVG Version: 6.00 Build 0)  -->
<!DOCTYPE svg PUBLIC "-//W3C//DTD SVG 1.1//EN" "http://www.w3.org/Graphics/SVG/1.1/DTD/svg11.dtd">
<svg version="1.1" id="Layer_1" xmlns="http://www.w3.org/2000/svg" xmlns:xlink="http://www.w3.org/1999/xlink" x="0px" y="0px" width="390.75px" height="90px" viewBox="0 0 390.75 90" enable-background="new 0 0 390.75 90" xml:space="preserve">
<g>
	<g>
		<path fill="#8A8A8D" d="M148.804,32.522h-8.062V61.68h-6.979V32.522h-8.012v-5.389h23.053V32.522z"/>
		<path fill="#8A8A8D" d="M170.957,46.518h-12.019v9.777h14.133v5.385h-21.137V27.133h21.085v5.389h-14.081v8.609h12.019V46.518z"/>
		<path fill="#8A8A8D" d="M198.707,50.552l0.076,0.143c0.031,3.796-0.902,6.659-2.802,8.591c-1.902,1.928-4.703,2.894-8.406,2.894    s-6.659-1.097-8.872-3.286c-2.212-2.191-3.316-5.294-3.316-9.313V39.258c0-4.001,1.067-7.106,3.204-9.313    c2.14-2.205,5.002-3.311,8.591-3.311c3.799,0,6.672,0.984,8.613,2.943c1.942,1.963,2.947,4.865,3.009,8.71l-0.071,0.14H192    c0.099-2.268-0.223-3.904-0.959-4.906c-0.738-0.998-2.024-1.5-3.858-1.5c-1.572,0-2.778,0.593-3.613,1.783    c-0.834,1.187-1.254,2.983-1.254,5.391v10.378c0,2.439,0.447,4.249,1.341,5.438c0.893,1.187,2.197,1.78,3.919,1.78    c1.688,0,2.865-0.47,3.526-1.413c0.665-0.938,0.956-2.55,0.875-4.827H198.707z"/>
		<path fill="#8A8A8D" d="M227.422,61.68h-6.98V47.375h-11.108V61.68h-7.005V27.133h7.005v14.855h11.108V27.133h6.98V61.68z"/>
		<path fill="#8A8A8D" d="M255.968,61.68h-6.955l-10.938-22.085l-0.147,0.045V61.68h-7.004V27.133h7.004L248.864,49.2l0.148-0.05    V27.133h6.955V61.68z"/>
		<path fill="#8A8A8D" d="M284.943,49.271c0,4.051-1.142,7.212-3.418,9.491c-2.278,2.277-5.307,3.417-9.093,3.417    s-6.809-1.14-9.069-3.417c-2.259-2.279-3.392-5.44-3.392-9.491v-9.676c0-4.037,1.133-7.203,3.392-9.507    c2.261-2.299,5.275-3.453,9.044-3.453s6.8,1.153,9.095,3.453c2.292,2.304,3.441,5.47,3.441,9.507V49.271z M277.987,39.518    c0-2.476-0.476-4.344-1.426-5.605c-0.952-1.259-2.335-1.891-4.154-1.891c-1.834,0-3.21,0.627-4.13,1.882    c-0.918,1.25-1.375,3.123-1.375,5.615v9.755c0,2.505,0.469,4.387,1.402,5.64c0.935,1.252,2.31,1.88,4.128,1.88    c1.803,0,3.177-0.628,4.129-1.88c0.95-1.253,1.426-3.135,1.426-5.64V39.518z"/>
		<path fill="#8A8A8D" d="M296.093,56.295h13.074v5.385h-20.079V27.133h7.005V56.295z"/>
		<path fill="#8A8A8D" d="M335.048,49.271c0,4.051-1.139,7.212-3.416,9.491c-2.277,2.277-5.309,3.417-9.093,3.417    c-3.785,0-6.81-1.14-9.068-3.417c-2.261-2.279-3.394-5.44-3.394-9.491v-9.676c0-4.037,1.133-7.203,3.394-9.507    c2.259-2.299,5.276-3.453,9.044-3.453c3.769,0,6.798,1.153,9.093,3.453c2.295,2.304,3.44,5.47,3.44,9.507V49.271z M328.092,39.518    c0-2.476-0.474-4.344-1.423-5.605c-0.952-1.259-2.336-1.891-4.154-1.891c-1.836,0-3.211,0.627-4.129,1.882    c-0.918,1.25-1.376,3.123-1.376,5.615v9.755c0,2.505,0.468,4.387,1.402,5.64c0.933,1.252,2.31,1.88,4.127,1.88    c1.802,0,3.178-0.628,4.13-1.88c0.949-1.253,1.423-3.135,1.423-5.64V39.518z"/>
		<path fill="#8A8A8D" d="M363.265,56.555c-0.967,1.485-2.418,2.796-4.35,3.927c-1.935,1.131-4.385,1.697-7.351,1.697    c-3.834,0-6.909-1.084-9.226-3.25c-2.318-2.166-3.479-5.251-3.479-9.257V39.141c0-3.972,1.119-7.047,3.355-9.229    c2.236-2.185,5.197-3.277,8.883-3.277c3.964,0,6.939,0.937,8.921,2.81c1.983,1.873,3.016,4.554,3.1,8.047l-0.053,0.143h-6.56    c-0.05-1.948-0.497-3.372-1.341-4.268c-0.843-0.896-2.136-1.345-3.872-1.345c-1.702,0-3.037,0.584-4.004,1.747    c-0.965,1.165-1.45,2.934-1.45,5.308v10.593c0,2.423,0.487,4.215,1.462,5.377c0.976,1.167,2.396,1.747,4.263,1.747    c1.396,0,2.422-0.183,3.086-0.546c0.665-0.364,1.207-0.903,1.634-1.614V48.44h-4.72v-4.746h11.7V56.555z"/>
		<path fill="#8A8A8D" d="M376.725,41.938h0.146l5.972-14.806h7.596l-10.224,22.255V61.68h-6.979V48.961l-10.054-21.828h7.644    L376.725,41.938z"/>
	</g>
	<g>
		<path fill="#8A8A8D" d="M136.812,83.356h-6.792l-1.551,5.204h-3.016l6.559-20.58h2.868l6.5,20.58h-3.017L136.812,83.356z     M130.708,81.082h5.432l-2.665-8.988h-0.088L130.708,81.082z"/>
		<path fill="#8A8A8D" d="M153.307,83.372c0-0.97-0.283-1.767-0.849-2.39s-1.556-1.166-2.972-1.638    c-2.03-0.594-3.586-1.368-4.669-2.322c-1.084-0.955-1.626-2.219-1.626-3.789c0-1.62,0.604-2.949,1.809-3.989    c1.204-1.041,2.755-1.56,4.647-1.56c1.972,0,3.561,0.6,4.766,1.801c1.206,1.202,1.788,2.651,1.748,4.346l-0.029,0.086h-2.854    c0-1.2-0.318-2.178-0.959-2.929c-0.639-0.752-1.54-1.129-2.701-1.129c-1.104,0-1.954,0.314-2.554,0.941    c-0.602,0.625-0.9,1.426-0.9,2.396c0,0.873,0.322,1.611,0.966,2.212c0.644,0.596,1.707,1.142,3.191,1.631    c1.941,0.585,3.421,1.384,4.435,2.39c1.016,1.012,1.524,2.318,1.524,3.923c0,1.688-0.6,3.025-1.8,4.017    c-1.201,0.99-2.776,1.486-4.729,1.486c-1.903,0-3.563-0.543-4.984-1.634c-1.421-1.087-2.105-2.619-2.058-4.601l0.03-0.084h2.854    c0,1.408,0.383,2.451,1.149,3.128c0.767,0.675,1.769,1.014,3.008,1.014c1.113,0,1.982-0.301,2.612-0.896    C152.991,85.183,153.307,84.379,153.307,83.372z"/>
		<path fill="#8A8A8D" d="M169.279,83.372c0-0.97-0.283-1.767-0.85-2.39s-1.557-1.166-2.972-1.638    c-2.03-0.594-3.586-1.368-4.669-2.322c-1.084-0.955-1.625-2.219-1.625-3.789c0-1.62,0.604-2.949,1.808-3.989    c1.206-1.041,2.754-1.56,4.647-1.56c1.972,0,3.562,0.6,4.766,1.801c1.206,1.202,1.79,2.651,1.749,4.346l-0.03,0.086h-2.854    c0-1.2-0.318-2.178-0.958-2.929c-0.64-0.752-1.54-1.129-2.702-1.129c-1.101,0-1.954,0.314-2.552,0.941    c-0.603,0.625-0.901,1.426-0.901,2.396c0,0.873,0.321,1.611,0.964,2.212c0.646,0.596,1.708,1.142,3.193,1.631    c1.942,0.585,3.421,1.384,4.434,2.39c1.016,1.012,1.523,2.318,1.523,3.923c0,1.688-0.601,3.025-1.799,4.017    c-1.203,0.99-2.778,1.486-4.731,1.486c-1.903,0-3.562-0.543-4.984-1.634c-1.419-1.087-2.105-2.619-2.057-4.601l0.029-0.084h2.855    c0,1.408,0.383,2.451,1.15,3.128c0.766,0.675,1.769,1.014,3.007,1.014c1.114,0,1.984-0.301,2.613-0.896    C168.963,85.183,169.279,84.379,169.279,83.372z"/>
		<path fill="#8A8A8D" d="M188.98,81.109c0,2.441-0.653,4.344-1.961,5.704c-1.309,1.361-3.06,2.042-5.256,2.042    c-2.167,0-3.89-0.681-5.167-2.042c-1.28-1.36-1.919-3.263-1.919-5.704v-5.653c0-2.431,0.642-4.333,1.926-5.709    c1.284-1.374,3.003-2.063,5.161-2.063c2.187,0,3.936,0.688,5.248,2.063c1.313,1.376,1.969,3.278,1.969,5.709V81.109z     M186.023,75.416c0-1.79-0.371-3.15-1.112-4.078s-1.791-1.393-3.147-1.393c-1.338,0-2.363,0.465-3.076,1.393    c-0.712,0.928-1.067,2.288-1.067,4.078v5.693c0,1.812,0.358,3.179,1.075,4.113c0.719,0.932,1.74,1.399,3.068,1.399    c1.365,0,2.417-0.465,3.154-1.393c0.737-0.93,1.105-2.302,1.105-4.12V75.416z"/>
		<path fill="#8A8A8D" d="M204.86,82.312l0.045,0.084c-0.01,2.056-0.577,3.645-1.699,4.772c-1.123,1.124-2.708,1.688-4.758,1.688    c-2.089,0-3.757-0.679-5.006-2.035c-1.25-1.356-1.874-3.252-1.874-5.682v-5.71c0-2.43,0.617-4.33,1.852-5.695    c1.234-1.365,2.881-2.049,4.94-2.049c2.089,0,3.696,0.551,4.818,1.654c1.122,1.101,1.697,2.712,1.728,4.833l-0.045,0.084h-2.81    c-0.029-1.508-0.338-2.618-0.923-3.329c-0.587-0.71-1.507-1.067-2.768-1.067c-1.22,0-2.167,0.479-2.837,1.431    c-0.675,0.953-1.011,2.313-1.011,4.076v5.763c0,1.794,0.343,3.166,1.031,4.121c0.688,0.952,1.657,1.429,2.906,1.429    c1.229,0,2.129-0.348,2.702-1.038c0.569-0.693,0.865-1.804,0.885-3.329H204.86z"/>
		<path fill="#8A8A8D" d="M210.788,88.561h-2.958V67.98h2.958V88.561z"/>
		<path fill="#8A8A8D" d="M224.705,83.356h-6.791l-1.552,5.204h-3.018l6.561-20.58h2.868l6.5,20.58h-3.016L224.705,83.356z     M218.601,81.082h5.432l-2.665-8.988h-0.087L218.601,81.082z"/>
		<path fill="#8A8A8D" d="M242.049,70.157h-5.475v18.403h-2.971V70.157h-5.446V67.98h13.892V70.157z"/>
		<path fill="#8A8A8D" d="M247.614,88.561h-2.956V67.98h2.956V88.561z"/>
		<path fill="#8A8A8D" d="M265.144,81.109c0,2.441-0.654,4.344-1.964,5.704c-1.308,1.361-3.059,2.042-5.254,2.042    c-2.168,0-3.89-0.681-5.168-2.042c-1.279-1.36-1.919-3.263-1.919-5.704v-5.653c0-2.431,0.642-4.333,1.927-5.709    c1.282-1.374,3.003-2.063,5.16-2.063c2.187,0,3.937,0.688,5.248,2.063c1.313,1.376,1.97,3.278,1.97,5.709V81.109z M262.185,75.416    c0-1.79-0.37-3.15-1.112-4.078c-0.741-0.928-1.79-1.393-3.146-1.393c-1.337,0-2.361,0.465-3.075,1.393    c-0.713,0.928-1.069,2.288-1.069,4.078v5.693c0,1.812,0.359,3.179,1.076,4.113c0.719,0.932,1.74,1.399,3.068,1.399    c1.366,0,2.418-0.465,3.153-1.393c0.738-0.93,1.105-2.302,1.105-4.12V75.416z"/>
		<path fill="#8A8A8D" d="M282.325,88.561h-2.958l-8.08-15.31l-0.087,0.03v15.279h-2.972V67.98h2.972l8.08,15.264l0.087-0.029V67.98    h2.958V88.561z"/>
		<path fill="#8A8A8D" d="M307.847,81.109c0,2.441-0.653,4.344-1.962,5.704c-1.31,1.361-3.061,2.042-5.256,2.042    c-2.167,0-3.89-0.681-5.168-2.042c-1.278-1.36-1.919-3.263-1.919-5.704v-5.653c0-2.431,0.643-4.333,1.926-5.709    c1.284-1.374,3.004-2.063,5.161-2.063c2.187,0,3.936,0.688,5.249,2.063c1.313,1.376,1.969,3.278,1.969,5.709V81.109z     M304.889,75.416c0-1.79-0.371-3.15-1.113-4.078c-0.741-0.928-1.791-1.393-3.146-1.393c-1.337,0-2.36,0.465-3.075,1.393    c-0.712,0.928-1.068,2.288-1.068,4.078v5.693c0,1.812,0.359,3.179,1.075,4.113c0.719,0.932,1.742,1.399,3.068,1.399    c1.365,0,2.418-0.465,3.154-1.393c0.738-0.93,1.105-2.302,1.105-4.12V75.416z"/>
		<path fill="#8A8A8D" d="M321.822,79.4h-7.92v9.16h-2.973V67.98h12.166v2.177h-9.193v7.065h7.92V79.4z"/>
		<path fill="#8A8A8D" d="M334.291,88.561h-2.957V67.98h2.957V88.561z"/>
		<path fill="#8A8A8D" d="M351.82,81.109c0,2.441-0.652,4.344-1.961,5.704c-1.31,1.361-3.06,2.042-5.256,2.042    c-2.168,0-3.89-0.681-5.168-2.042c-1.278-1.36-1.918-3.263-1.918-5.704v-5.653c0-2.431,0.642-4.333,1.925-5.709    c1.284-1.374,3.004-2.063,5.161-2.063c2.187,0,3.936,0.688,5.247,2.063c1.314,1.376,1.97,3.278,1.97,5.709V81.109z     M348.863,75.416c0-1.79-0.371-3.15-1.112-4.078c-0.742-0.928-1.791-1.393-3.147-1.393c-1.336,0-2.361,0.465-3.076,1.393    c-0.712,0.928-1.066,2.288-1.066,4.078v5.693c0,1.812,0.358,3.179,1.074,4.113c0.719,0.932,1.741,1.399,3.068,1.399    c1.365,0,2.418-0.465,3.154-1.393c0.737-0.93,1.105-2.302,1.105-4.12V75.416z"/>
		<path fill="#8A8A8D" d="M368.966,82.65h0.089l2.868-14.67h2.914l-4.304,20.58h-2.738l-3.615-14.614h-0.09l-3.644,14.614h-2.736    l-4.29-20.58h2.913l2.884,14.67h0.087l3.63-14.67h2.358L368.966,82.65z"/>
		<path fill="#8A8A8D" d="M385.832,83.356h-6.792l-1.554,5.204h-3.014l6.56-20.58h2.868l6.499,20.58h-3.016L385.832,83.356z     M379.728,81.082h5.432l-2.664-8.988h-0.088L379.728,81.082z"/>
	</g>
	<g>
		<path fill="#8A8A8D" d="M139.561,2.926h-5.475v18.4h-2.972v-18.4h-5.445V0.751h13.892V2.926z"/>
		<path fill="#8A8A8D" d="M156.167,21.327h-2.958v-9.087h-8.168v9.087h-2.972V0.751h2.972v9.313h8.168V0.751h2.958V21.327z"/>
		<path fill="#8A8A8D" d="M170.681,11.759h-7.904v7.393h9.163v2.175h-12.135V0.751h12.048v2.175h-9.076v6.657h7.904V11.759z"/>
	</g>
	<g>
		<polygon fill="#BD2E2B" points="99,1 99,39.104 114.973,89 117,89 117,1   "/>
	</g>
	<path fill="#BD2E2B" d="M84.139,1H66.008h-0.433H1v14h27v74h11.865h5.573h12.424l4.893-19h24.079l4.953,19h17.999L84.139,1z    M45,69.587V15h16.566L45,69.587z M66.389,56l8.217-32h0.377l8.214,32H66.389z"/>
</g>
</svg>